<?xml version="1.0" encoding="UTF-8" standalone="no"?>
<!-- Created with Inkscape (http://www.inkscape.org/) -->

<svg
   xmlns:dc="http://purl.org/dc/elements/1.1/"
   xmlns:cc="http://creativecommons.org/ns#"
   xmlns:rdf="http://www.w3.org/1999/02/22-rdf-syntax-ns#"
   xmlns:svg="http://www.w3.org/2000/svg"
   xmlns="http://www.w3.org/2000/svg"
   xmlns:sodipodi="http://sodipodi.sourceforge.net/DTD/sodipodi-0.dtd"
   xmlns:inkscape="http://www.inkscape.org/namespaces/inkscape"
   width="344mm"
   height="75mm"
   viewBox="0 0 1218.8974 265.74787"
   id="svg3420"
   version="1.1"
   inkscape:version="0.91 r13725"
   sodipodi:docname="rykenlogo1.svg">
  <defs
     id="defs3422" />
  <sodipodi:namedview
     id="base"
     pagecolor="#ffffff"
     bordercolor="#666666"
     borderopacity="1.0"
     inkscape:pageopacity="0.0"
     inkscape:pageshadow="2"
     inkscape:zoom="0.35"
     inkscape:cx="375"
     inkscape:cy="634.28571"
     inkscape:document-units="px"
     inkscape:current-layer="layer1"
     showgrid="false"
     inkscape:window-width="1536"
     inkscape:window-height="801"
     inkscape:window-x="-8"
     inkscape:window-y="-8"
     inkscape:window-maximized="1" />
  <metadata
     id="metadata3425">
    <rdf:RDF>
      <cc:Work
         rdf:about="">
        <dc:format>image/svg+xml</dc:format>
        <dc:type
           rdf:resource="http://purl.org/dc/dcmitype/StillImage" />
        <dc:title></dc:title>
      </cc:Work>
    </rdf:RDF>
  </metadata>
  <g
     inkscape:label="Layer 1"
     inkscape:groupmode="layer"
     id="layer1"
     transform="translate(0,-786.61474)">
    <g
       style="display:inline"
       id="g7210"
       transform="matrix(2.1592427,0,0,-3.5564407,-10.915586,1654.6735)">
      <g
         transform="translate(564.667,235.5259)"
         id="g3356">
        <path
           sodipodi:nodetypes="cccccccccccccc"
           inkscape:connector-curvature="0"
           id="path3358"
           style="fill:#000000;fill-opacity:1;fill-rule:nonzero;stroke:none"
           d="m 0,0 -0.15098961,-61.690927 -7.49350519,5.53564 3.9974948,4.838287 0,42.375 1.647,4.047 1.988,4.883 0,0.001 z M -9.575,-6.751 -9.6504948,-57.044924 2,-65.464 2,4.831 Z" />
      </g>
      <g
         transform="translate(493.8422,175.0986)"
         id="g3360">
        <path
           sodipodi:nodetypes="ccccccccccc"
           inkscape:connector-curvature="0"
           id="path3362"
           style="fill:#000000;fill-opacity:1;fill-rule:nonzero;stroke:none"
           d="M -2.9720711,-0.11396447 0.3955026,3.4956092 0.4118856,51.183961 4.0780208,54.545911 4.0381068,-0.09303553 Z M -5.2,-2.207 l 11.7309896,0 0,58.877877 L -5.2,65.255 Z" />
      </g>
      <g
         transform="translate(516.4256,210.0015)"
         id="g3364">
        <path
           sodipodi:nodetypes="ccccccccccc"
           inkscape:connector-curvature="0"
           id="path3366"
           style="fill:#000000;fill-opacity:1;fill-rule:nonzero;stroke:none"
           d="m 1.7566805,1.1755361 18.8571025,-12.5973921 4.850893,2.0706405 -0.001,-10.4222165 -27.6848718,19.3632876 z M -5.1938752,-1.3895138 27.91407,-24.611583 l 0,16.2829996 -33.1079452,23.2260694 z" />
      </g>
    </g>
    <g
       style="display:inline"
       id="g7174"
       transform="matrix(2.1592427,0,0,-3.5564407,-10.915586,1654.6735)">
      <g
         transform="translate(187.1571,175.0283)"
         id="g3348">
        <path
           sodipodi:nodetypes="cccccccccccccccc"
           inkscape:connector-curvature="0"
           id="path3350"
           style="fill:#000000;fill-opacity:1;fill-rule:nonzero;stroke:none"
           d="m 0,0 0,0.001 2,2.129 1.658,1.765 0.4393889,48.045642 3.922,9.045568 L 7.58,-0.137 l 0,0 -7.58,0 0,0 z m -2,-2.137 11.58,0 0,67.463 L -2,53.747 Z" />
      </g>
      <g
         transform="translate(166.2821,207.2207)"
         id="g3368">
        <path
           inkscape:connector-curvature="0"
           id="path3370"
           style="fill:#000000;fill-opacity:1;fill-rule:nonzero;stroke:none"
           d="m 0,0 5.675,-1.979 0.002,-10e-4 0.041,-0.033 -0.001,0 0.001,0 -11.367,0 -37.708,30.166 10e-4,-10e-4 5.899,-2.158 3.161,-1.156 L -5.198,1.813 0,0 Z m -49.249,30.305 42.898,-34.318 17.77,0 -42.898,34.318 -17.77,0 z" />
      </g>
    </g>
    <g
       style="display:inline"
       id="g7180"
       transform="matrix(2.1592427,0,0,-3.5564407,-10.915586,1654.6735)">
      <g
         transform="translate(245.7734,175.0137)"
         id="g3352">
        <path
           sodipodi:nodetypes="ccccccccccccccc"
           inkscape:connector-curvature="0"
           id="path3354"
           style="fill:#000000;fill-opacity:1;fill-rule:nonzero;stroke:none"
           d="M 0,0 0,0 2.061,1.878 3.97,3.618 3.7407858,49.538213 7.4861459,52.510656 7.58,-0.122 l -7.58,0 0,0 z m -2,-2.122 11.58,0 0,55.883 L -2,65.341 Z" />
      </g>
      <g
         transform="translate(283.6719,205.208)"
         id="g3372">
        <path
           sodipodi:nodetypes="cccccccccccccccccccccccccc"
           inkscape:connector-curvature="0"
           id="path3374"
           style="fill:#000000;fill-opacity:1;fill-rule:nonzero;stroke:none"
           d="m 0,0 c -5.475,-0.156 0,0 -5.479,-0.16 l 32.951,-26.416 4.721,-1.737 5.446,-2.003 -11.114,0 -10e-4,0 -37.701,30.16 0,0 3.201,0 2.501,0 33.196,26.545 4.076,1.609 5.88,2.32 10e-4,0 0.221,0 -10e-4,0 10e-4,0 z M 25.823,32.318 -14.574,0 l 40.397,-32.316 17.779,0 L 3.201,0 43.602,32.318 Z" />
      </g>
    </g>
    <g
       style="display:inline"
       id="g3384"
       transform="matrix(2.1592427,0,0,-3.5564407,159.11742,1020.3977)">
      <path
         d="m 0,0 4.191,-1.397 5.489,-1.83 10e-4,0 0.284,-0.227 -10e-4,0 -11.367,0 -45.478,37.898 10e-4,0 -10e-4,0 0.008,0 10e-4,0 9.99148,-3.892957 L -6.875,30.625 c 9.875,0 12.75,7.25 13,11 0.155,2.323 -0.457,4.261 -0.946,5.401 -0.3,0.701 -0.554,1.099 -0.554,1.099 L 3.062,47.209 1.32,46.188 c -1.36,2.22 -3.72,2.997 -5.196,3.268 -0.211,0.039 -0.404,0.067 -0.573,0.088 -0.208,0.025 -0.38,0.039 -0.507,0.047 -0.063,0.004 -0.115,0.006 -0.154,0.008 -0.055,0.002 -0.085,0.002 -0.085,0.002 l -53.055,0 0,-45.476 -7.324,-7.324 0,10e-4 1.993,4.821 1.706,4.127 0.03922,47.12022 L -3.75,52.875 c 0,0 5.75,0 8.375,-4.75 l 1.609,0.986 1.735,1.063 10e-4,0 c 1.208,-2.056 1.995,-4.71 1.995,-8.153 0,-4.381 -1.27,-7.49 -3.07,-9.705 -4.43,-5.448 -12.09,-5.454 -12.09,-5.454 l -21.498406,0.02966 -10.456848,3.742532 z m -5.195,24.862 c 5.93491504,-0.03176 17.159,3.586 17.159,17.159 0,13.573 -11.224,17.159 -17.159,17.159 l -62.635,0 0,-67.462 11.58,11.579 0,44.304 51.043,0 c 0.934,-0.012 5.592,-0.334 5.592,-5.58 0,-5.244 -4.658,-5.566 -5.58,-5.577 l -46.513,0 49.604,-41.898 17.77,0 -36.78809,30.401224 z"
         style="fill:#000000;fill-opacity:1;fill-rule:nonzero;stroke:none"
         id="path3386"
         inkscape:connector-curvature="0"
         sodipodi:nodetypes="ccccccccccccccccccccccccccccccccccccscccccssscccccscccccs" />
    </g>
    <g
       style="display:inline"
       id="g7204"
       transform="matrix(2.1592427,0,0,-3.5564407,-10.915586,1654.6735)">
      <g
         transform="translate(440.8711,227.9463)"
         id="g3388">
        <path
           sodipodi:nodetypes="ccccccccccccccccccccccccccccccccc"
           inkscape:connector-curvature="0"
           id="path3390"
           style="fill:#000000;fill-opacity:1;fill-rule:nonzero;stroke:none"
           d="m 0,0 -60.637,0 0,-45.474 0.074,0 0,-0.001 -3.942716,-3.456822 3.252716,-0.05518 60,0 3.583,-1.647 5.233,-2.404 0.002,-0.001 0.016,-0.016 -0.001,0 -68.217,0 -7.575,0 3.640982,4.058977 L -64.68498,3.4981454 -1.3890355,3.6490355 2.706,5.535 7.563,7.58 l 0,0 0.018,0 L 0.001,0 Z m 12.409,9.58 -82.621,0 0,-64.635 82.621,0 -11.581,11.58 -59.465,0 0,41.475 59.465,0 z" />
      </g>
      <g
         transform="translate(400.1182,205.209)"
         id="g3392">
        <path
           inkscape:connector-curvature="0"
           id="path3394"
           style="fill:#000000;fill-opacity:1;fill-rule:nonzero;stroke:none"
           d="m 0,0 16.875,0 3.736,-1.638 4.912,-2.153 -26.455,0 -0.001,0 L -8.406,3.685 -3.372,1.479 0,0 Z m -1.762,-5.791 32.185,0 -11.58,11.578 -32.178,0 11.573,-11.578 z" />
      </g>
    </g>
  </g>
</svg>
